<?xml version="1.0" standalone="no"?><!DOCTYPE svg PUBLIC "-//W3C//DTD SVG 1.1//EN" "http://www.w3.org/Graphics/SVG/1.1/DTD/svg11.dtd"><svg t="1623325940471" class="icon" viewBox="0 0 1024 1024" version="1.1" xmlns="http://www.w3.org/2000/svg" p-id="20778" xmlns:xlink="http://www.w3.org/1999/xlink" width="200" height="200"><defs><style type="text/css"></style></defs><path d="M399.266482 148.728539a74.370438 74.370438 0 0 1 0-148.728539h227.355414a74.370438 74.370438 0 0 1 0 148.728539z m0-113.702382a39.344281 39.344281 0 1 0 0 78.676225h227.355414a39.344281 39.344281 0 0 0 0-78.676225z" p-id="20779" fill="#cfdc60"></path><path d="M209.972249 1024A153.305751 153.305751 0 0 1 56.851561 870.842299V198.226581A152.627188 152.627188 0 0 1 200.546401 45.389655h3.294112l8.278461-0.259087a25.686671 25.686671 0 0 1 12.806323 3.417487 26.056796 26.056796 0 0 1-16.91471 48.350655l-1.468162-0.135713c-55.284329 2.22075-98.095447 46.74678-98.095447 101.463584v672.615718a101.697996 101.697996 0 0 0 101.574621 101.586959h604.006892a101.710334 101.710334 0 0 0 101.586959-101.586959V198.226581a101.229171 101.229171 0 0 0-97.466235-101.377221h-1.23375l-1.677899 0.222075a13.349173 13.349173 0 0 1-1.862962 0.1974 26.081471 26.081471 0 1 1 0-52.162942 26.747696 26.747696 0 0 1 5.909661 0.74025l1.344787 0.24675a152.984976 152.984976 0 0 1 146.50779 152.775238v672.640393a152.664201 152.664201 0 0 1-152.491476 152.491476z" p-id="20780" fill="#cfdc60"></path><path d="M509.242939 752.723093c-9.869998-0.925312-19.283509-10.869336-19.739997-21.269847-0.616875-15.33551-0.616875-31.01647-0.616874-46.179255v-44.698755h-45.315631c-4.934999 0-9.635586 0.074025-14.188123 0.135712h-2.899312c-3.947999 0-7.821974 0.111037-11.695948 0.111038-4.515524 0-9.043386-0.074025-13.694623-0.271425h-2.035687c-4.934999 0-10.573236-2.4675-15.113435-6.514199a22.626971 22.626971 0 0 1-6.538874-15.064085 20.714659 20.714659 0 0 1 5.058374-15.08876 21.060109 21.060109 0 0 1 14.003061-7.797299c6.477186-0.505837 13.719298-0.74025 23.441246-0.74025 2.146725 0 23.712671 0.160387 23.712671 0.160387h44.686418v-65.832889h-10.610248c-5.342137-0.308437-11.042061-0.468825-16.729648-0.468825s-11.387511 0.160387-17.087434 0.481162c-6.946011 0.209737-13.743973 0.419475-20.406222 0.419475-14.34851 0-24.860059-1.024012-34.100845-3.343462-11.646598-4.478512-12.596586-16.877697-12.596585-20.554271 0-7.242111 3.146062-16.86536 12.004385-20.147135a89.298811 89.298811 0 0 1 23.441247-2.553862c4.934999 0 10.030386 0.222075 15.150447 0.44415 3.380474 0 6.070049 0.0987 8.771961 0.160388s5.736937 0.14805 8.636249 0.14805 5.847974-0.086362 8.697936-0.308438h4.589549l21.775684-21.788021-7.550548-7.525874c-8.167424-8.574561-17.01341-17.272497-25.291871-25.427584l-1.492838-1.283099c-3.701249-3.590212-7.192761-7.081724-10.511548-10.400511-14.262148-14.24981-33.804745-33.78007-52.594754-53.211629-5.453174-4.934999-7.143411-11.264136-5.243437-18.901047 2.726587-9.265461 7.895999-15.68096 14.484223-17.877035a19.345197 19.345197 0 0 1 7.044711-1.52985c7.501199 0 16.038747 5.527199 21.084785 10.992711l93.160447 94.48056 49.06623-49.078567q7.143411-7.143411 14.126435-14.274485c9.277799-9.401174 18.506247-18.715985 27.919758-27.759371 8.636249-9.080399 15.742648-13.250473 22.380222-13.250473a18.876372 18.876372 0 0 1 5.996024 1.03635 21.578284 21.578284 0 0 1 16.32251 15.87836c1.92465 7.217436 0.061687 14.15111-4.935 18.691309-9.339486 9.746623-19.086109 19.357534-28.511958 28.635333l-15.693297 15.594598c-12.781648 11.782311-25.008109 24.588634-37.950144 38.135206l-9.869998 10.289474-6.316799 6.292124 18.308847 23.527609h5.539536a64.89524 64.89524 0 0 0 10.499211 0.715574c5.033699 0 10.203111-0.357787 15.360185-0.740249s10.832323-0.826612 16.359523-0.826613c9.573898 0 17.025747 1.295437 23.441246 4.059037 10.894011 5.761612 10.314148 17.790672 9.869998 21.343872-0.974662 7.784961-5.588887 17.519247-15.397197 19.394547a256.545934 256.545934 0 0 1-34.643695 2.085037c-5.798624 0-11.560236-0.135712-17.272497-0.333113-3.898649 0-7.575224-0.074025-11.264136-0.14805h-1.23375c-3.343462-0.061687-6.674586-0.111037-10.018048-0.111037-3.836962 0-7.661586 0-11.498548 0.283762h-10.252461v65.216015h88.669598c0.999337-0.061687 1.52985-0.0987 2.060363-0.0987 10.536223 0 20.554272 9.240786 21.430234 19.739997a19.147797 19.147797 0 0 1-5.132399 16.951722c-4.712924 5.181749-10.388173 7.920674-16.408873 7.920674h-89.311148v44.698755c0 15.162785 0 30.843745-0.616875 46.216268 0 5.847974-3.01035 11.547898-8.229111 15.82901-4.848637 3.775274-9.068061 5.403824-14.003061 5.403824z" p-id="20781" fill="#cfdc60"></path></svg>