<?xml version="1.0" standalone="no"?><!DOCTYPE svg PUBLIC "-//W3C//DTD SVG 1.1//EN" "http://www.w3.org/Graphics/SVG/1.1/DTD/svg11.dtd"><svg t="1623325476130" class="icon" viewBox="0 0 1024 1024" version="1.1" xmlns="http://www.w3.org/2000/svg" p-id="6288" data-spm-anchor-id="a313x.7781069.0.i1" xmlns:xlink="http://www.w3.org/1999/xlink" width="200" height="200"><defs><style type="text/css"></style></defs><path d="M39.951231 786.539868V71.412826L123.848817 17.728359h804.517923l49.939039 53.684467 16.729578 750.833455-217.983906-554.323335s-201.254328 89.39088-352.070227 53.684467l-149.817118-35.706413-14.232626-2.996343-29.464033 110.365277-74.908559 196.759815-83.1485 160.803706z" fill="#ffffff" p-id="6289" data-spm-anchor-id="a313x.7781069.0.i2" class=""></path><path d="M11.236284 978.555474h1001.527432v45.444526H11.236284v-45.444526zM193.264082 796.777371h637.471836v45.444526H193.264082v-45.444526zM780.047793 239.457693a944.347232 944.347232 0 0 1-268.172641 38.702756 943.598147 943.598147 0 0 1-280.407705-42.448184 334.591563 334.591563 0 0 0 34.707632 9.987808q-3.995123 24.96952-8.739332 47.442087a997.032919 997.032919 0 0 0 254.439405 32.710071 997.032919 997.032919 0 0 0 254.439405-32.710071q-4.744209-23.471348-8.739331-47.442087s11.735674-2.996342 22.222872-6.24238z" fill="#ffc82f" p-id="6290" data-spm-anchor-id="a313x.7781069.0.i0" class="selected"></path><path d="M921.62497 0H102.37503A91.138747 91.138747 0 0 0 11.236284 91.138747v751.332845a1358.092173 1358.092173 0 0 0 246.199463-549.329432q4.744209-23.471348 8.739332-47.442087a334.841258 334.841258 0 0 1-34.707632-9.987808l-9.238722-2.996342a1310.650085 1310.650085 0 0 1-165.547915 459.439161V113.86101a68.166789 68.166789 0 0 1 68.416483-68.416484h774.055109a68.166789 68.166789 0 0 1 68.166788 68.166788v578.54377a1310.650085 1310.650085 0 0 1-165.547915-459.189466l-21.723482 6.74177c-10.487198 3.246038-20.974396 6.24238-22.222872 6.24238q3.995123 24.96952 8.739332 47.442088a1358.092173 1358.092173 0 0 0 246.199463 549.329431V91.138747A91.138747 91.138747 0 0 0 921.62497 0z" fill="#F7D102" p-id="6291"></path></svg>